<svg id="visual" viewBox="0 0 900 600" width="900" height="600" xmlns="http://www.w3.org/2000/svg" xmlns:xlink="http://www.w3.org/1999/xlink" version="1.1"><rect x="0" y="0" width="900" height="600" fill="#000000"></rect><defs><linearGradient id="grad1_0" x1="33.3%" y1="0%" x2="100%" y2="100%"><stop offset="20%" stop-color="#f4a460" stop-opacity="1"></stop><stop offset="80%" stop-color="#f4a460" stop-opacity="1"></stop></linearGradient></defs><defs><linearGradient id="grad1_1" x1="33.3%" y1="0%" x2="100%" y2="100%"><stop offset="20%" stop-color="#f4a460" stop-opacity="1"></stop><stop offset="80%" stop-color="#bc7432" stop-opacity="1"></stop></linearGradient></defs><defs><linearGradient id="grad1_2" x1="33.3%" y1="0%" x2="100%" y2="100%"><stop offset="20%" stop-color="#864700" stop-opacity="1"></stop><stop offset="80%" stop-color="#bc7432" stop-opacity="1"></stop></linearGradient></defs><defs><linearGradient id="grad1_3" x1="33.3%" y1="0%" x2="100%" y2="100%"><stop offset="20%" stop-color="#864700" stop-opacity="1"></stop><stop offset="80%" stop-color="#541c00" stop-opacity="1"></stop></linearGradient></defs><defs><linearGradient id="grad1_4" x1="33.3%" y1="0%" x2="100%" y2="100%"><stop offset="20%" stop-color="#000000" stop-opacity="1"></stop><stop offset="80%" stop-color="#541c00" stop-opacity="1"></stop></linearGradient></defs><defs><linearGradient id="grad2_0" x1="0%" y1="0%" x2="66.7%" y2="100%"><stop offset="20%" stop-color="#f4a460" stop-opacity="1"></stop><stop offset="80%" stop-color="#f4a460" stop-opacity="1"></stop></linearGradient></defs><defs><linearGradient id="grad2_1" x1="0%" y1="0%" x2="66.7%" y2="100%"><stop offset="20%" stop-color="#bc7432" stop-opacity="1"></stop><stop offset="80%" stop-color="#f4a460" stop-opacity="1"></stop></linearGradient></defs><defs><linearGradient id="grad2_2" x1="0%" y1="0%" x2="66.7%" y2="100%"><stop offset="20%" stop-color="#bc7432" stop-opacity="1"></stop><stop offset="80%" stop-color="#864700" stop-opacity="1"></stop></linearGradient></defs><defs><linearGradient id="grad2_3" x1="0%" y1="0%" x2="66.7%" y2="100%"><stop offset="20%" stop-color="#541c00" stop-opacity="1"></stop><stop offset="80%" stop-color="#864700" stop-opacity="1"></stop></linearGradient></defs><defs><linearGradient id="grad2_4" x1="0%" y1="0%" x2="66.7%" y2="100%"><stop offset="20%" stop-color="#541c00" stop-opacity="1"></stop><stop offset="80%" stop-color="#000000" stop-opacity="1"></stop></linearGradient></defs><g transform="translate(900, 0)"><path d="M0 432.7C-78 422.7 -156 412.7 -216.3 374.7C-276.7 336.7 -319.4 270.6 -352.5 203.5C-385.6 136.4 -409.1 68.2 -432.7 0L0 0Z" fill="#400500"></path><path d="M0 346.1C-62.4 338.2 -124.8 330.2 -173.1 299.8C-221.3 269.3 -255.5 216.5 -282 162.8C-308.5 109.1 -327.3 54.6 -346.1 0L0 0Z" fill="#6c3100"></path><path d="M0 259.6C-46.8 253.6 -93.6 247.6 -129.8 224.8C-166 202 -191.6 162.4 -211.5 122.1C-231.4 81.8 -245.5 40.9 -259.6 0L0 0Z" fill="#a15d1b"></path><path d="M0 173.1C-31.2 169.1 -62.4 165.1 -86.5 149.9C-110.7 134.7 -127.7 108.2 -141 81.4C-154.2 54.6 -163.7 27.3 -173.1 0L0 0Z" fill="#d88c49"></path><path d="M0 86.5C-15.6 84.5 -31.2 82.5 -43.3 74.9C-55.3 67.3 -63.9 54.1 -70.5 40.7C-77.1 27.3 -81.8 13.6 -86.5 0L0 0Z" fill="#f4a460"></path></g><g transform="translate(0, 600)"><path d="M0 -432.7C84.3 -426.4 168.7 -420.1 216.3 -374.7C264 -329.3 274.9 -245 304.8 -176C334.8 -107 383.7 -53.5 432.7 0L0 0Z" fill="#400500"></path><path d="M0 -346.1C67.5 -341.1 135 -336 173.1 -299.8C211.2 -263.5 219.9 -196 243.9 -140.8C267.8 -85.6 307 -42.8 346.1 0L0 0Z" fill="#6c3100"></path><path d="M0 -259.6C50.6 -255.8 101.2 -252 129.8 -224.8C158.4 -197.6 164.9 -147 182.9 -105.6C200.9 -64.2 230.2 -32.1 259.6 0L0 0Z" fill="#a15d1b"></path><path d="M0 -173.1C33.7 -170.5 67.5 -168 86.5 -149.9C105.6 -131.7 110 -98 121.9 -70.4C133.9 -42.8 153.5 -21.4 173.1 0L0 0Z" fill="#d88c49"></path><path d="M0 -86.5C16.9 -85.3 33.7 -84 43.3 -74.9C52.8 -65.9 55 -49 61 -35.2C67 -21.4 76.7 -10.7 86.5 0L0 0Z" fill="#f4a460"></path></g></svg>